<svg width="496" height="496" viewBox="0 0 496 496" fill="none" xmlns="http://www.w3.org/2000/svg">
<path d="M447.004 211L52.3518 211C34.9012 211 0 218.252 0 247.258C0 276.265 34.9012 285.172 52.3518 286L447.004 286C463.336 284.51 496 274.675 496 247.258C496 219.841 463.336 211.662 447.004 211Z" fill="black"/>
<path d="M285 447.004L285 52.3518C285 34.9012 277.748 -3.1698e-07 248.742 -1.5849e-06C219.735 -2.85282e-06 210.828 34.9012 210 52.3518L210 447.004C211.49 463.336 221.324 496 248.742 496C276.159 496 284.338 463.336 285 447.004Z" fill="black"/>
</svg>
