<svg width="547" height="547" viewBox="0 0 547 547" fill="none" xmlns="http://www.w3.org/2000/svg">
<path fill-rule="evenodd" clip-rule="evenodd" d="M299.26 26.1298C299.26 11.6987 287.561 0 273.13 0C258.699 0 247 11.6987 247 26.1298V247L26.1299 247C11.6987 247 0 258.699 0 273.13C0 287.561 11.6987 299.26 26.1299 299.26L247 299.26V520.87C247 535.301 258.699 547 273.13 547C287.561 547 299.26 535.301 299.26 520.87V299.26L520.87 299.26C535.301 299.26 547 287.561 547 273.13C547 258.699 535.301 247 520.87 247H299.26V26.1298Z" fill="white"/>
</svg>
