<svg width="549" height="515" viewBox="0 0 549 515" fill="none" xmlns="http://www.w3.org/2000/svg">
<path d="M250.125 288.471C227.725 316.871 189.791 369.637 173.625 392.471C166.125 381.804 150.025 358.971 145.625 352.971C140.125 345.471 127.625 327.471 108.625 306.971C89.6249 286.471 56.1245 258.971 44.6245 252.471C33.1245 245.971 27.1247 245.471 15.6247 247.971C4.12471 250.471 -0.875288 270.471 0.124712 275.471C1.12471 280.471 2.62471 291.471 15.6247 302.471C28.6247 313.471 29.6247 315.971 51.6247 342.971C73.6247 369.971 90.1247 397.971 108.625 434.971C127.125 471.971 132.625 490.471 140.125 500.471C147.625 510.471 165.125 514.471 173.625 514.471C182.125 514.471 188.125 511.971 197.125 506.471C206.125 500.971 219.125 478.971 233.625 452.971C248.125 426.971 258.625 409.971 301.625 342.971C344.625 275.971 384.625 226.971 401.625 205.471C418.625 183.971 531.625 55.9706 540.625 42.4706C549.625 28.9706 552.125 14.9706 540.625 4.47065C529.125 -6.02935 513.625 4.47065 504.125 10.4706C494.625 16.4706 447.625 64.4706 394.625 120.971C341.625 177.471 278.125 252.971 250.125 288.471Z" fill="white"/>
</svg>
